HIERARCHY
ROOT Hips
{
	OFFSET -0.001795 -0.223333 0.028219
	CHANNELS 6 Xposition Yposition Zposition Zrotation Yrotation Xrotation 
	JOINT LeftUpLeg
	{
		OFFSET 0.069520 -0.091406 -0.006815
		CHANNELS 3 Zrotation Yrotation Xrotation
		JOINT LeftLeg
		{
			OFFSET 0.034277 -0.375199 -0.004496
			CHANNELS 3 Zrotation Yrotation Xrotation
			JOINT LeftFoot
			{
				OFFSET -0.013596 -0.397961 -0.043693
				CHANNELS 3 Zrotation Yrotation Xrotation
				JOINT LeftToe
				{
					OFFSET 0.026358 -0.055791 0.119288
					CHANNELS 3 Zrotation Yrotation Xrotation
					End Site
					{
						OFFSET 0.000000 0.000000 0.000000
					}
				}
			}
		}
	}
	JOINT RightUpLeg
	{
		OFFSET -0.067670 -0.090522 -0.004320
		CHANNELS 3 Zrotation Yrotation Xrotation
		JOINT RightLeg
		{
			OFFSET -0.038290 -0.382569 -0.008850
			CHANNELS 3 Zrotation Yrotation Xrotation
			JOINT RightFoot
			{
				OFFSET 0.015774 -0.398415 -0.042312
				CHANNELS 3 Zrotation Yrotation Xrotation
				JOINT RightToe
				{
					OFFSET -0.025372 -0.048144 0.123348
					CHANNELS 3 Zrotation Yrotation Xrotation
					End Site
					{
						OFFSET 0.000000 0.000000 0.000000
					}
				}
			}
		}
	}
	JOINT Spine
	{
		OFFSET -0.002533 0.108963 -0.026696
		CHANNELS 3 Zrotation Yrotation Xrotation
		JOINT Spine1
		{
			OFFSET 0.005487 0.135180 0.001092
			CHANNELS 3 Zrotation Yrotation Xrotation
			JOINT Spine2
			{
				OFFSET 0.001457 0.052922 0.025425
				CHANNELS 3 Zrotation Yrotation Xrotation
				JOINT Neck
				{
					OFFSET -0.002778 0.213870 -0.042857
					CHANNELS 3 Zrotation Yrotation Xrotation
					JOINT Head
					{
						OFFSET 0.005152 0.064970 0.051349
						CHANNELS 3 Zrotation Yrotation Xrotation
						End Site
						{
							OFFSET 0.000000 0.000000 0.000000
						}
					}
				}
				JOINT LeftShoulder
				{
					OFFSET 0.078845 0.121749 -0.034090
					CHANNELS 3 Zrotation Yrotation Xrotation
					JOINT LeftArm
					{
						OFFSET 0.090977 0.030469 -0.008868
						CHANNELS 3 Zrotation Yrotation Xrotation
						JOINT LeftForeArm
						{
							OFFSET 0.259612 -0.012772 -0.027456
							CHANNELS 3 Zrotation Yrotation Xrotation
							JOINT LeftHand
							{
								OFFSET 0.249234 0.008986 -0.001171
								CHANNELS 3 Zrotation Yrotation Xrotation
								End Site
								{
									OFFSET 0.000000 0.000000 0.000000
								}
							}
						}
					}
				}
				JOINT RightShoulder
				{
					OFFSET -0.081759 0.118833 -0.038615
					CHANNELS 3 Zrotation Yrotation Xrotation
					JOINT RightArm
					{
						OFFSET -0.096012 0.032551 -0.009143
						CHANNELS 3 Zrotation Yrotation Xrotation
						JOINT RightForeArm
						{
							OFFSET -0.253742 -0.013329 -0.021401
							CHANNELS 3 Zrotation Yrotation Xrotation
							JOINT RightHand
							{
								OFFSET -0.255298 0.007772 -0.005559
								CHANNELS 3 Zrotation Yrotation Xrotation
								End Site
								{
									OFFSET 0.000000 0.000000 0.000000
								}
							}
						}
					}
				}
			}
		}
	}
}
MOTION
Frames: 7
Frame Time: 0.050000
0.027250 0.921166 0.505301 -6.128728 -16.580702 16.033286 3.541269 -0.381930 -30.546911 -3.250654 0.979836 16.173920 3.200639 6.889812 2.467109 0.000000 0.000000 0.000000 -10.006657 2.626105 -30.873334 0.349304 1.547020 21.342628 -0.573607 -12.294349 24.042660 0.000000 0.000000 0.000000 0.290392 0.157712 30.696217 1.403319 -0.552484 -3.818010 -6.058566 9.722237 8.715603 16.330973 -4.021925 -34.702200 0.000000 0.000000 0.000000 1.171761 -27.219950 9.482043 -30.510349 -53.011961 8.670438 59.793915 -46.506670 -24.656031 0.000000 0.000000 0.000000 3.492734 14.090996 5.699815 52.211956 44.952239 15.626232 -68.985189 53.984992 -32.323079 0.000000 0.000000 0.000000 
0.025463 0.921259 0.506512 -6.041829 -16.985030 15.264281 3.522311 -0.392263 -29.506826 -3.255494 0.998654 16.091613 3.380208 7.213570 2.195149 0.000000 0.000000 0.000000 -9.575135 2.886666 -32.459182 0.957833 1.760799 24.719419 -2.555190 -15.558966 26.118704 0.000000 0.000000 0.000000 0.330822 0.189427 30.864229 1.560828 -0.623385 -3.970133 -5.842101 9.499972 9.424746 16.328333 -3.876273 -35.856292 0.000000 0.000000 0.000000 0.781133 -26.880844 9.429716 -31.377501 -51.828527 8.713954 61.580783 -47.741443 -26.264118 0.000000 0.000000 0.000000 4.005151 14.277730 5.762735 52.010224 45.861909 15.861806 -67.328822 54.066958 -31.509959 0.000000 0.000000 0.000000 
0.021797 0.922307 0.509531 -6.007792 -16.870562 13.914634 3.466598 -0.487552 -27.866399 -2.926655 0.911767 16.275096 3.349869 7.148043 1.895278 0.000000 0.000000 0.000000 -8.449958 3.084832 -32.810331 1.177211 2.008539 27.530212 -3.689687 -16.760339 24.159996 0.000000 0.000000 0.000000 0.366354 0.183443 31.325161 2.132084 -0.868601 -3.093960 -5.979430 8.901409 8.807226 16.695198 -4.384840 -34.327773 0.000000 0.000000 0.000000 -0.788607 -27.434693 9.895721 -30.145378 -48.940909 7.497799 63.909351 -48.769784 -28.247290 0.000000 0.000000 0.000000 5.184954 13.910193 5.653577 51.548335 45.953439 15.681771 -66.548511 55.693066 -32.361495 0.000000 0.000000 0.000000 
0.016080 0.923210 0.514983 -6.224330 -16.596032 12.390244 3.704391 -0.504002 -26.186724 -2.512183 0.834760 17.196674 3.266873 6.950405 1.329526 0.000000 0.000000 0.000000 -7.123706 3.349263 -33.311530 1.866976 2.098675 30.433933 -4.185178 -17.051768 21.945547 0.000000 0.000000 0.000000 0.421334 0.142043 31.556999 2.655546 -1.097654 -3.031840 -5.827703 8.012249 9.404656 16.135773 -4.355492 -34.012135 0.000000 0.000000 0.000000 -1.176372 -27.346360 9.963274 -30.806345 -47.249176 7.313221 66.299750 -49.255791 -29.790905 0.000000 0.000000 0.000000 5.918834 14.006786 5.626898 52.345148 45.114019 15.410136 -67.516029 58.159704 -35.061149 0.000000 0.000000 0.000000 
0.008445 0.922853 0.522879 -6.092544 -16.397274 11.732838 3.566108 -0.573317 -25.282527 -1.931751 0.695297 17.974565 3.265964 6.878305 0.531216 0.000000 0.000000 0.000000 -6.336447 3.597637 -34.143001 2.019497 1.980871 30.056936 -3.519324 -15.266945 17.522916 0.000000 0.000000 0.000000 0.403221 0.074986 30.623591 3.567298 -1.478828 -3.037258 -6.057799 7.571850 9.940954 15.345838 -4.232438 -33.403987 0.000000 0.000000 0.000000 -2.077784 -27.607137 10.257562 -31.802697 -46.145877 7.345245 68.277984 -49.546616 -31.006715 0.000000 0.000000 0.000000 6.548132 13.884312 5.556551 54.415885 43.387365 15.191909 -68.949041 61.701639 -38.817335 0.000000 0.000000 0.000000 
-0.000975 0.922791 0.532841 -5.716150 -16.439841 11.144498 3.362205 -0.651790 -23.223166 -1.604222 0.549262 16.818700 3.389070 7.061817 -0.454376 0.000000 0.000000 0.000000 -5.718913 3.866758 -35.058455 1.633682 1.711898 26.481293 -1.093824 -9.586389 12.434560 0.000000 0.000000 0.000000 0.348437 0.056647 29.867002 3.988215 -1.648102 -3.361444 -6.271719 6.774710 10.211434 14.934834 -4.191260 -33.355702 0.000000 0.000000 0.000000 -3.563209 -27.148136 10.440465 -32.538620 -45.590388 7.480015 68.803544 -50.062312 -31.428681 0.000000 0.000000 0.000000 7.676729 14.827071 5.914115 55.465374 42.619977 15.034357 -69.358281 63.216775 -40.640049 0.000000 0.000000 0.000000 
-0.012362 0.921580 0.544412 -5.306061 -16.088444 10.709153 3.230933 -0.711906 -21.616908 -1.250765 0.414563 16.306466 3.386861 6.949935 -1.742739 0.000000 0.000000 0.000000 -5.032774 4.064804 -35.575572 0.612541 1.443871 21.292553 0.291995 -8.096390 15.109051 0.000000 0.000000 0.000000 0.593218 -0.101441 28.753361 3.840462 -1.608362 -2.687685 -6.399796 5.894534 9.052417 13.727118 -3.959382 -31.998095 0.000000 0.000000 0.000000 -5.563885 -27.105313 10.895287 -33.272742 -45.303551 7.758365 69.356631 -51.237133 -32.464243 0.000000 0.000000 0.000000 8.819270 14.371729 5.662340 58.007327 40.160542 14.619806 -71.843954 66.278263 -45.348832 0.000000 0.000000 0.000000 
